<?xml version="1.0" standalone="no"?>
<!DOCTYPE svg PUBLIC "-//W3C//DTD SVG 20010904//EN"
 "http://www.w3.org/TR/2001/REC-SVG-20010904/DTD/svg10.dtd">
<svg version="1.0" xmlns="http://www.w3.org/2000/svg"
 width="252.000000pt" height="252.000000pt" viewBox="0 0 252.000000 252.000000"
 preserveAspectRatio="xMidYMid meet">
<metadata>
Created by potrace 1.11, written by Peter Selinger 2001-2013
</metadata>
<g transform="translate(0.000000,252.000000) scale(0.100000,-0.100000)"
fill="#000000" stroke="none">
<path d="M2478 2093 c-86 -128 -277 -282 -451 -363 -209 -98 -455 -136 -682
-106 -232 30 -462 131 -642 283 -29 25 -53 40 -53 35 0 -5 22 -46 49 -91 240
-399 703 -576 1153 -441 138 42 315 155 418 267 110 121 200 284 234 426 9 36
3 34 -26 -10z"/>
<path d="M108 2002 c-51 -108 -69 -163 -92 -287 -18 -102 -15 -332 8 -432 61
-276 213 -514 439 -684 143 -107 355 -194 530 -217 67 -9 283 -8 322 2 11 2
52 11 90 19 187 40 391 150 540 294 86 82 83 86 -26 34 -121 -58 -210 -89
-309 -108 -14 -3 -36 -7 -50 -10 -14 -2 -92 -6 -175 -8 -118 -3 -171 1 -248
16 -506 99 -905 507 -991 1014 -17 104 -20 285 -5 370 6 36 9 68 7 70 -2 2
-20 -31 -40 -73z"/>
<path d="M395 1810 c13 -177 55 -312 144 -460 52 -89 72 -113 158 -202 111
-114 271 -210 430 -257 106 -32 139 -36 278 -36 174 0 219 8 365 62 153 57
277 137 394 251 57 56 146 171 146 188 0 5 -4 4 -8 -1 -11 -16 -121 -79 -217
-124 -91 -44 -279 -104 -358 -116 -27 -3 -59 -8 -70 -11 -32 -6 -205 -6 -257
1 -322 41 -618 203 -810 442 -75 93 -98 128 -155 241 l-44 87 4 -65z"/>
</g>
</svg>
